<?xml version="1.0" encoding="utf-8"?>
<!-- Generator: Adobe Illustrator 21.1.0, SVG Export Plug-In . SVG Version: 6.00 Build 0)  -->
<svg version="1.1" id="Layer_1" xmlns="http://www.w3.org/2000/svg" xmlns:xlink="http://www.w3.org/1999/xlink" x="0px" y="0px"
	 viewBox="0 0 150 80" style="enable-background:new 0 0 150 80;" xml:space="preserve">
<style type="text/css">
	.st0{fill:#FFFFFF;}
	.st1{fill:#660066;}
</style>
<rect class="st0" width="150" height="80"/>
<g>
	<rect y="20" class="st1" width="150" height="40.7"/>
	<g>
		<path class="st0" d="M24,49.6c-0.2,0.3-0.4,0.6-0.7,1c-0.3,0.3-0.7,0.7-1.1,1c-0.4,0.3-1,0.5-1.5,0.7c-0.6,0.2-1.2,0.3-1.9,0.3
			c-1.7,0-3.1-0.3-4.3-0.9c-1.1-0.6-2-1.4-2.6-2.4c-0.6-1-0.9-2.2-0.9-3.5c0-1.3,0.1-2.7,0.5-4.1c0.4-1.4,1.1-2.8,1.9-4.3
			c0.9-1.4,1.9-2.8,3.2-4c-0.6,0-1.2,0-1.8,0.1c-0.6,0-1.2,0.2-1.8,0.3c-0.6,0.2-1.1,0.4-1.7,0.7c-0.6,0.3-1.1,0.7-1.6,1.2
			c-0.5,0.5-0.9,1-1.1,1.5c-0.2,0.5-0.3,1-0.3,1.5c0,0.5,0.1,0.9,0.4,1.3c0.2,0.4,0.5,0.7,0.9,0.9l-1,0.5c-0.3,0-0.6-0.2-1-0.4
			c-0.4-0.2-0.7-0.5-1.1-0.9c-0.3-0.4-0.6-0.8-0.9-1.3c-0.3-0.5-0.4-1-0.5-1.5c-0.1-0.5-0.1-1.1,0-1.6C5.1,35,5.3,34.5,5.7,34
			c0.7-0.9,1.5-1.6,2.5-1.9c1-0.3,2.1-0.5,3.2-0.5c1.1,0,2.2,0.1,3.3,0.3c1.1,0.2,2.1,0.3,3,0.3c0.8-0.7,1.7-1.3,2.6-1.8
			c0.9-0.5,1.9-1,3-1.4c1-0.4,2.1-0.7,3.3-0.9c1.2-0.2,2.4-0.3,3.6-0.3c0.9,0,1.6,0.1,2.1,0.4s0.9,0.6,1.1,1
			c0.2,0.4,0.2,0.9,0.1,1.4s-0.4,1.1-0.7,1.6s-0.8,1-1.4,1.5c-0.6,0.5-1.3,0.9-2,1.2c-1.1,0.5-2,0.7-2.8,0.7c-0.8,0-1.4-0.2-1.8-0.5
			c-0.4-0.3-0.6-0.8-0.6-1.3c0-0.5,0.2-1.1,0.6-1.6c-0.4,0.1-0.7,0.2-1.1,0.2c-0.3,0.1-0.7,0.1-1.1,0.2s-0.9,0.2-1.3,0.2
			c-1.1,1.1-2.1,2.3-2.9,3.6s-1.5,2.7-2.1,4c-0.5,1.4-0.9,2.7-1.1,4c-0.2,1.3-0.2,2.4,0,3.4c0.2,1,0.6,1.8,1.2,2.4s1.5,0.9,2.7,0.9
			c0.5,0,1-0.1,1.5-0.2s0.9-0.4,1.3-0.6c0.4-0.2,0.7-0.5,1-0.8s0.5-0.6,0.6-0.9L24,49.6z M29.9,28.8c-1.4,0-2.7,0.3-3.9,0.8
			c-1.2,0.5-2.4,1.2-3.5,2.1c0.8-0.2,1.6-0.4,2.2-0.6c0.6-0.2,1.1-0.4,1.6-0.6c0.5-0.2,0.9-0.4,1.2-0.6l0.4,1
			c-1.1,0.5-1.8,1-2.2,1.5c-0.4,0.5-0.5,1-0.4,1.4c0.1,0.4,0.5,0.6,1.1,0.7c0.6,0.1,1.5-0.1,2.5-0.6c0.8-0.4,1.5-0.8,2.1-1.4
			c0.6-0.6,1-1.1,1.1-1.6c0.2-0.5,0.1-1-0.2-1.4C31.6,29,30.9,28.8,29.9,28.8z"/>
		<path class="st0" d="M31.4,37.2c0.6,0,1.1,0.1,1.5,0.4c0.4,0.3,0.7,0.6,0.9,1c0.2,0.4,0.3,1,0.2,1.5c0,0.6-0.2,1.2-0.4,1.9
			c-0.3,0.8-0.6,1.4-1.1,2c-0.4,0.6-0.9,1.1-1.4,1.5c-0.5,0.4-1.1,0.7-1.6,1c-0.6,0.2-1.2,0.3-1.8,0.3c-0.6,0-1.1-0.1-1.5-0.4
			c-0.4-0.3-0.7-0.6-0.9-1c-0.2-0.4-0.2-1-0.2-1.5c0-0.6,0.2-1.2,0.5-1.9c0.6-1.5,1.4-2.7,2.4-3.6C29,37.6,30.1,37.2,31.4,37.2z
			 M30.8,42.1c0.2-0.5,0.4-1,0.5-1.4c0.1-0.5,0.2-0.9,0.2-1.2s0-0.6,0-0.8c-0.1-0.2-0.2-0.3-0.4-0.3s-0.4,0.1-0.7,0.3
			c-0.2,0.2-0.5,0.5-0.7,0.8c-0.3,0.3-0.5,0.7-0.7,1.2c-0.2,0.5-0.5,0.9-0.7,1.4c-0.2,0.5-0.4,1-0.5,1.4c-0.1,0.4-0.2,0.8-0.2,1.2
			c0,0.3,0,0.6,0.1,0.8c0.1,0.2,0.2,0.3,0.4,0.3c0.2,0,0.4-0.1,0.6-0.3c0.2-0.2,0.5-0.5,0.7-0.8c0.2-0.3,0.5-0.7,0.7-1.2
			S30.6,42.6,30.8,42.1z"/>
		<path class="st0" d="M45.6,44.1c-0.1,0.3-0.1,0.5,0,0.7c0.2,0.1,0.4,0.2,0.7,0.1s0.6-0.2,0.9-0.4c0.3-0.2,0.6-0.6,0.8-1l0.4,0.7
			c-0.2,0.4-0.4,0.8-0.7,1.1c-0.3,0.3-0.6,0.6-1,0.9c-0.3,0.2-0.7,0.4-1.1,0.6c-0.4,0.1-0.8,0.2-1.2,0.2c-0.8,0-1.3-0.3-1.7-0.8
			c-0.3-0.5-0.3-1.3,0.2-2.3l1.6-3.8c0.1-0.2,0.1-0.4,0-0.6c-0.1-0.1-0.2-0.2-0.4-0.2s-0.4,0-0.6,0.1c-0.2,0.1-0.5,0.2-0.7,0.4
			c0,0.1-0.1,0.2-0.1,0.3c0,0.1-0.1,0.2-0.1,0.3l-1.8,4.3c-0.1,0.3-0.1,0.6,0,0.8c0.1,0.2,0.3,0.3,0.7,0.3h0.2l-0.5,1.1
			c-0.1,0-0.3,0.1-0.4,0.1c-0.2,0-0.5,0.1-0.9,0.1c-0.9,0-1.5-0.3-1.7-0.8c-0.2-0.5-0.1-1.3,0.3-2.4c0.1-0.2,0.2-0.6,0.4-1
			c0.2-0.4,0.3-0.8,0.5-1.3c0.2-0.5,0.4-1,0.6-1.5c0.1-0.2,0.1-0.4,0-0.6c-0.1-0.1-0.2-0.2-0.4-0.2s-0.4,0-0.6,0.1
			c-0.2,0.1-0.5,0.3-0.7,0.5c0,0.1-0.1,0.2-0.1,0.3c0,0.1-0.1,0.2-0.1,0.3c-0.1,0.3-0.2,0.6-0.4,1c-0.2,0.4-0.4,0.8-0.5,1.3
			c-0.2,0.4-0.3,0.8-0.5,1.2c-0.1,0.4-0.2,0.6-0.3,0.7c-0.1,0.3-0.2,0.6-0.1,0.8c0.1,0.2,0.3,0.3,0.7,0.3h0.2l-0.5,1.1
			c-0.1,0-0.3,0.1-0.4,0.1c-0.2,0-0.5,0.1-0.9,0.1c-0.9,0-1.5-0.3-1.7-0.8c-0.2-0.5-0.1-1.3,0.3-2.4c0.1-0.3,0.2-0.6,0.4-1
			c0.2-0.4,0.3-0.8,0.5-1.2c0.2-0.4,0.3-0.8,0.5-1.2c0.1-0.4,0.3-0.7,0.4-0.9c0.1-0.3,0.1-0.6,0-0.8c-0.1-0.2-0.3-0.3-0.7-0.3h-0.2
			l0.5-1c0.1,0,0.3-0.1,0.4-0.1c0.1,0,0.3-0.1,0.4-0.1c0.1,0,0.3,0,0.5,0c1.1,0,1.7,0.4,1.8,1.1c0.4-0.3,0.8-0.6,1.3-0.8
			c0.5-0.2,0.9-0.3,1.4-0.3c1,0,1.6,0.4,1.8,1.1c0.4-0.3,0.8-0.6,1.3-0.8c0.5-0.2,0.9-0.3,1.4-0.3c0.8,0,1.3,0.3,1.6,0.8
			c0.3,0.5,0.2,1.3-0.2,2.3L45.6,44.1z"/>
		<path class="st0" d="M53.3,44.1c-0.2,0.4-0.4,0.8-0.7,1.1c-0.3,0.3-0.6,0.6-1,0.9c-0.3,0.2-0.7,0.4-1.1,0.6
			c-0.4,0.1-0.8,0.2-1.2,0.2c-0.8,0-1.3-0.3-1.7-0.8c-0.3-0.5-0.3-1.3,0.2-2.3c0.1-0.2,0.2-0.5,0.4-0.9c0.2-0.4,0.3-0.8,0.5-1.3
			s0.3-0.9,0.5-1.2c0.2-0.4,0.3-0.7,0.4-0.9c0.1-0.3,0.1-0.6,0-0.8c-0.1-0.2-0.3-0.3-0.7-0.3h-0.2l0.5-1c0.1,0,0.3-0.1,0.4-0.1
			c0.1,0,0.3-0.1,0.4-0.1c0.2,0,0.3,0,0.5,0c0.9,0,1.5,0.3,1.7,0.8s0.1,1.3-0.3,2.4c-0.1,0.2-0.2,0.6-0.4,1
			c-0.2,0.4-0.3,0.8-0.5,1.3c-0.2,0.5-0.4,1-0.6,1.5c-0.1,0.3-0.1,0.6,0,0.7c0.2,0.1,0.4,0.2,0.7,0.1c0.3-0.1,0.6-0.2,0.9-0.5
			c0.3-0.2,0.6-0.6,0.8-1L53.3,44.1z M54.3,34.9c0,0.4-0.1,0.8-0.4,1s-0.6,0.4-1,0.4c-0.4,0-0.8-0.1-1.1-0.4s-0.4-0.6-0.4-1
			c0-0.4,0.1-0.8,0.4-1s0.6-0.4,1.1-0.4c0.4,0,0.8,0.1,1,0.4S54.3,34.5,54.3,34.9z"/>
		<path class="st0" d="M55.1,44.6c-0.1,0.3-0.1,0.6,0,0.8c0.1,0.2,0.3,0.3,0.7,0.3H56l-0.5,1c-0.1,0-0.3,0.1-0.4,0.1
			c-0.2,0-0.5,0.1-0.9,0.1c-0.9,0-1.5-0.3-1.7-0.8c-0.2-0.5-0.1-1.3,0.3-2.4l1.7-4.2c0.1-0.3,0.2-0.6,0.1-0.8
			c-0.1-0.2-0.3-0.3-0.7-0.3h-0.2l0.5-1c0.1,0,0.3-0.1,0.4-0.1c0.1,0,0.3-0.1,0.4-0.1c0.2,0,0.3,0,0.5,0c1.1,0,1.7,0.4,1.8,1.1
			c0.4-0.4,0.8-0.6,1.3-0.8c0.5-0.2,0.9-0.3,1.4-0.3c0.8,0,1.3,0.3,1.7,0.8s0.3,1.3-0.2,2.3c-0.1,0.2-0.2,0.5-0.3,0.9
			c-0.1,0.4-0.3,0.7-0.5,1.1c-0.2,0.4-0.3,0.8-0.5,1.1c-0.1,0.3-0.2,0.6-0.3,0.7c-0.1,0.3-0.1,0.5,0,0.7c0.2,0.1,0.4,0.2,0.7,0.1
			c0.3,0,0.6-0.2,0.9-0.4s0.6-0.6,0.8-1l0.4,0.7c-0.2,0.4-0.4,0.8-0.7,1.1s-0.6,0.6-1,0.9c-0.3,0.2-0.7,0.4-1.1,0.6
			c-0.4,0.1-0.8,0.2-1.2,0.2s-0.7-0.1-1-0.2c-0.3-0.1-0.5-0.3-0.6-0.6c-0.1-0.3-0.2-0.6-0.2-1c0-0.4,0.1-0.8,0.3-1.3l1.6-3.8
			c0.1-0.2,0.1-0.4,0-0.6c-0.1-0.1-0.2-0.2-0.4-0.2c-0.2,0-0.4,0-0.7,0.1c-0.3,0.1-0.5,0.3-0.8,0.5c0,0.1-0.1,0.2-0.1,0.2
			c0,0.1-0.1,0.2-0.1,0.2c-0.1,0.3-0.2,0.6-0.4,1c-0.2,0.4-0.4,0.8-0.5,1.3c-0.2,0.4-0.3,0.8-0.5,1.2C55.2,44.2,55.1,44.5,55.1,44.6
			z"/>
		<path class="st0" d="M72.8,37.4c-0.1,0.3-0.3,0.7-0.4,1.1c-0.2,0.4-0.3,0.8-0.5,1.3c-0.2,0.5-0.4,0.9-0.6,1.4
			c-0.2,0.5-0.4,1-0.6,1.5c-0.5,1.1-0.9,2.3-1.4,3.5c-0.6,1.6-1.4,2.8-2.5,3.6c-1,0.8-2.2,1.2-3.4,1.2c-0.5,0-0.9-0.1-1.2-0.4
			c-0.3-0.2-0.5-0.6-0.6-0.9c-0.1-0.4-0.1-0.8-0.1-1.2s0.2-0.9,0.5-1.3c0.2-0.4,0.5-0.7,0.8-1c-0.3-0.4-0.5-1-0.5-1.7
			c0-0.7,0.2-1.5,0.5-2.4c0.7-1.7,1.6-2.9,2.6-3.7c1-0.8,2.1-1.2,3.2-1.2c0.6,0,1.1,0.2,1.4,0.6l0.2-0.4H72.8z M64.4,46.9
			c-0.2,0-0.4,0-0.5,0c-0.2,0-0.3-0.1-0.5-0.1c-0.2,0.2-0.4,0.4-0.6,0.7c-0.2,0.3-0.3,0.7-0.5,1.2c-0.1,0.4,0,0.7,0.2,1
			s0.5,0.4,0.8,0.4c0.3,0,0.6-0.1,0.9-0.3c0.3-0.2,0.6-0.5,0.9-0.9c0.3-0.4,0.5-0.8,0.8-1.2c0.2-0.4,0.4-0.9,0.6-1.3
			c-0.4,0.2-0.7,0.4-1.1,0.5C65.1,46.8,64.8,46.9,64.4,46.9z M65.5,45.4c0.2,0,0.5-0.1,0.8-0.2c0.3-0.1,0.6-0.3,0.9-0.5l2.4-5.8
			c-0.2-0.2-0.4-0.3-0.7-0.3c-0.3,0-0.6,0.1-0.8,0.2c-0.3,0.1-0.5,0.3-0.8,0.6c-0.3,0.3-0.5,0.6-0.8,1.1c-0.3,0.4-0.6,1-0.9,1.6
			c-0.2,0.5-0.4,0.9-0.6,1.3c-0.1,0.4-0.2,0.8-0.2,1.1s0,0.6,0.2,0.7C65,45.3,65.2,45.4,65.5,45.4z"/>
		<path class="st0" d="M85.8,51.4c0.9,0.1,1.8,0.1,2.7-0.1c0.8-0.2,1.6-0.6,2.2-1s1.2-1.1,1.7-1.8s0.8-1.6,0.9-2.5s0.2-1.9,0-3
			c-0.2-1.1-0.5-2.2-1-3.3c-0.5-1-0.8-2-0.9-2.9c-0.1-0.9-0.1-1.8,0.2-2.7c-0.9-0.2-1.9-0.3-2.8-0.3c-1,0-1.9,0-2.8,0.1
			c-0.9,0.1-1.8,0.4-2.6,0.7c-0.8,0.3-1.5,0.8-2.1,1.4c-0.5,0.5-0.9,1.1-1.1,1.6c-0.2,0.6-0.3,1.2-0.2,1.7c0,0.6,0.2,1.1,0.5,1.5
			c0.3,0.4,0.6,0.8,1,1l-1.1,0.5c-0.3,0-0.7-0.2-1.1-0.4c-0.4-0.2-0.8-0.6-1.1-1c-0.4-0.4-0.7-0.9-0.9-1.4c-0.3-0.5-0.5-1.1-0.6-1.6
			c-0.1-0.6-0.1-1.1,0-1.7c0.1-0.6,0.4-1.2,0.8-1.7c0.5-0.7,1.2-1.2,1.9-1.6c0.8-0.3,1.6-0.6,2.5-0.7c0.9-0.1,1.8-0.1,2.7-0.1
			s1.9,0.1,2.8,0.3c0.9,0.1,1.8,0.2,2.6,0.3c0.8,0.1,1.5,0.1,2.1,0.1c0.3-0.7,0.8-1.4,1.3-2s1.2-1.1,1.9-1.6c0.7-0.4,1.5-0.8,2.4-1
			c0.9-0.2,1.8-0.4,2.8-0.4c1.1,0,2,0.2,2.7,0.6c0.7,0.4,1.2,0.9,1.6,1.5c0.3,0.6,0.5,1.3,0.5,2c0,0.7-0.2,1.4-0.6,2.1
			c-0.4,0.7-0.9,1.3-1.6,1.8s-1.6,0.8-2.7,1c-1,0.1-1.8,0.1-2.4-0.1s-1-0.6-1.3-1c-0.2-0.4-0.3-0.9-0.2-1.5c0.1-0.6,0.4-1.1,1-1.6
			c-0.2,0.1-0.4,0.1-0.7,0.2c-0.2,0.1-0.5,0.2-0.8,0.3c-0.3,0.1-0.6,0.2-0.9,0.3c-0.2,0.7-0.2,1.6,0,2.5c0.1,0.9,0.5,1.9,1,2.9
			c0.7,1.3,1.1,2.6,1.2,3.9c0.1,1.3,0,2.5-0.3,3.6c-0.3,1.1-0.8,2.1-1.5,3c-0.7,0.9-1.6,1.7-2.6,2.3c-1,0.6-2.2,1-3.4,1.3
			c-1.3,0.2-2.6,0.2-4,0c-1.5-0.2-2.6-0.7-3.4-1.4c-0.8-0.7-1.3-1.4-1.6-2.3c-0.3-0.9-0.3-1.8-0.1-2.7c0.2-1,0.6-1.8,1.2-2.6
			c0.6-0.8,1.3-1.5,2.2-2s1.9-0.8,2.9-0.8c0.5,0,0.9,0.1,1.1,0.3s0.4,0.5,0.4,0.8c0,0.3,0,0.7-0.2,1.1s-0.4,0.7-0.7,1.1
			c-0.3,0.3-0.7,0.6-1.1,0.8c-0.4,0.2-0.9,0.3-1.4,0.3c-0.5,0-0.8-0.2-1-0.5c-0.2-0.3-0.2-0.7-0.1-1.2c-0.5,0.3-1,0.7-1.3,1.1
			c-0.3,0.5-0.5,1-0.7,1.5s-0.1,1.1,0,1.6c0.1,0.5,0.3,1.1,0.6,1.5c0.3,0.5,0.7,0.9,1.3,1.2C84.4,51.1,85,51.3,85.8,51.4z
			 M100.2,29.1c-0.4,0-0.9,0.1-1.3,0.2c-0.4,0.1-0.9,0.3-1.3,0.6s-0.8,0.6-1.1,1c-0.3,0.4-0.6,0.8-0.9,1.3c0.7-0.2,1.3-0.4,2-0.7
			c0.6-0.2,1.1-0.5,1.5-0.6c0.5-0.2,1-0.5,1.4-0.7l0.4,1.1c-0.4,0-0.9,0.2-1.3,0.5c-0.4,0.3-0.7,0.6-1,1c-0.3,0.4-0.5,0.7-0.6,1.1
			c-0.1,0.4-0.1,0.8,0,1.1c0.1,0.3,0.3,0.6,0.6,0.7c0.3,0.2,0.8,0.2,1.5,0.1c0.8-0.1,1.4-0.3,2-0.7c0.5-0.4,1-0.8,1.2-1.3
			s0.4-1,0.5-1.6s-0.1-1-0.3-1.5c-0.3-0.5-0.6-0.8-1.2-1.1C101.7,29.3,101,29.1,100.2,29.1z"/>
		<path class="st0" d="M107,37.2c0.6,0,1.1,0.1,1.5,0.4c0.4,0.3,0.7,0.6,0.9,1c0.2,0.4,0.3,1,0.2,1.5c0,0.6-0.2,1.2-0.4,1.9
			c-0.3,0.8-0.7,1.4-1.1,2c-0.4,0.6-0.9,1.1-1.4,1.5c-0.5,0.4-1.1,0.7-1.6,1c-0.6,0.2-1.2,0.3-1.8,0.3c-0.6,0-1.1-0.1-1.5-0.4
			c-0.4-0.3-0.7-0.6-0.9-1s-0.2-1-0.2-1.5c0-0.6,0.2-1.2,0.5-1.9c0.6-1.5,1.4-2.7,2.4-3.6C104.6,37.6,105.7,37.2,107,37.2z
			 M106.4,42.1c0.2-0.5,0.4-1,0.5-1.4c0.1-0.5,0.2-0.9,0.2-1.2c0-0.3,0-0.6,0-0.8c-0.1-0.2-0.2-0.3-0.4-0.3c-0.2,0-0.4,0.1-0.7,0.3
			c-0.2,0.2-0.5,0.5-0.7,0.8s-0.5,0.7-0.7,1.2c-0.2,0.5-0.5,0.9-0.7,1.4c-0.2,0.5-0.4,1-0.5,1.4s-0.2,0.8-0.2,1.2
			c0,0.3,0,0.6,0.1,0.8c0.1,0.2,0.2,0.3,0.4,0.3s0.4-0.1,0.6-0.3c0.2-0.2,0.5-0.5,0.7-0.8c0.2-0.3,0.5-0.7,0.7-1.2
			C106,43,106.2,42.6,106.4,42.1z"/>
		<path class="st0" d="M116.1,37.2c0.6,0,1.1,0.1,1.5,0.4c0.4,0.3,0.7,0.6,0.9,1c0.2,0.4,0.3,1,0.2,1.5c0,0.6-0.2,1.2-0.4,1.9
			c-0.3,0.8-0.7,1.4-1.1,2c-0.4,0.6-0.9,1.1-1.4,1.5c-0.5,0.4-1.1,0.7-1.6,1c-0.6,0.2-1.2,0.3-1.8,0.3c-0.6,0-1.1-0.1-1.5-0.4
			c-0.4-0.3-0.7-0.6-0.9-1s-0.2-1-0.2-1.5c0-0.6,0.2-1.2,0.5-1.9c0.6-1.5,1.4-2.7,2.4-3.6C113.7,37.6,114.9,37.2,116.1,37.2z
			 M115.5,42.1c0.2-0.5,0.4-1,0.5-1.4c0.1-0.5,0.2-0.9,0.2-1.2c0-0.3,0-0.6,0-0.8c-0.1-0.2-0.2-0.3-0.4-0.3c-0.2,0-0.4,0.1-0.7,0.3
			c-0.2,0.2-0.5,0.5-0.7,0.8s-0.5,0.7-0.7,1.2c-0.2,0.5-0.5,0.9-0.7,1.4c-0.2,0.5-0.4,1-0.5,1.4s-0.2,0.8-0.2,1.2
			c0,0.3,0,0.6,0.1,0.8c0.1,0.2,0.2,0.3,0.4,0.3s0.4-0.1,0.6-0.3c0.2-0.2,0.5-0.5,0.7-0.8c0.2-0.3,0.5-0.7,0.7-1.2
			C115.1,43,115.3,42.6,115.5,42.1z"/>
		<path class="st0" d="M121.2,44.6c-0.1,0.3-0.1,0.6,0,0.8c0.1,0.2,0.3,0.3,0.7,0.3h0.2l-0.5,1c-0.1,0-0.3,0.1-0.4,0.1
			c-0.2,0-0.5,0.1-0.9,0.1c-0.9,0-1.5-0.3-1.7-0.8c-0.2-0.5-0.1-1.3,0.3-2.4l1.7-4.2c0.1-0.3,0.2-0.6,0.1-0.8
			c-0.1-0.2-0.3-0.3-0.7-0.3h-0.2l0.5-1c0.1,0,0.3-0.1,0.4-0.1c0.1,0,0.3-0.1,0.4-0.1s0.3,0,0.5,0c1.1,0,1.7,0.4,1.8,1.1
			c0.4-0.4,0.8-0.6,1.3-0.8c0.5-0.2,0.9-0.3,1.4-0.3c0.8,0,1.3,0.3,1.7,0.8c0.3,0.5,0.3,1.3-0.2,2.3c-0.1,0.2-0.2,0.5-0.3,0.9
			c-0.1,0.4-0.3,0.7-0.5,1.1s-0.3,0.8-0.5,1.1c-0.1,0.3-0.2,0.6-0.3,0.7c-0.1,0.3-0.1,0.5,0,0.7c0.2,0.1,0.4,0.2,0.7,0.1
			s0.6-0.2,0.9-0.4c0.3-0.2,0.6-0.6,0.8-1l0.4,0.7c-0.2,0.4-0.4,0.8-0.7,1.1s-0.6,0.6-1,0.9c-0.3,0.2-0.7,0.4-1.1,0.6
			c-0.4,0.1-0.8,0.2-1.2,0.2c-0.4,0-0.7-0.1-1-0.2s-0.5-0.3-0.6-0.6c-0.1-0.3-0.2-0.6-0.2-1c0-0.4,0.1-0.8,0.3-1.3L125,40
			c0.1-0.2,0.1-0.4,0-0.6c-0.1-0.1-0.2-0.2-0.4-0.2s-0.4,0-0.7,0.1c-0.3,0.1-0.5,0.3-0.8,0.5c0,0.1-0.1,0.2-0.1,0.2
			c0,0.1-0.1,0.2-0.1,0.2c-0.1,0.3-0.2,0.6-0.4,1c-0.2,0.4-0.4,0.8-0.5,1.3s-0.3,0.8-0.5,1.2S121.2,44.5,121.2,44.6z"/>
		<path class="st0" d="M132.5,45.3c0,0.4-0.2,0.8-0.5,1.1c-0.3,0.3-0.7,0.5-1.2,0.5c-0.5,0-0.8-0.2-1.2-0.5
			c-0.3-0.3-0.5-0.7-0.5-1.1c0-0.5,0.2-0.8,0.5-1.2c0.3-0.3,0.7-0.5,1.2-0.5c0.5,0,0.8,0.2,1.2,0.5
			C132.3,44.5,132.5,44.8,132.5,45.3z"/>
		<path class="st0" d="M138.8,45.3c0,0.4-0.2,0.8-0.5,1.1c-0.3,0.3-0.7,0.5-1.2,0.5c-0.5,0-0.8-0.2-1.2-0.5
			c-0.3-0.3-0.5-0.7-0.5-1.1c0-0.5,0.2-0.8,0.5-1.2c0.3-0.3,0.7-0.5,1.2-0.5c0.5,0,0.8,0.2,1.2,0.5
			C138.6,44.5,138.8,44.8,138.8,45.3z"/>
		<path class="st0" d="M145.1,45.3c0,0.4-0.2,0.8-0.5,1.1c-0.3,0.3-0.7,0.5-1.2,0.5c-0.5,0-0.8-0.2-1.2-0.5
			c-0.3-0.3-0.5-0.7-0.5-1.1c0-0.5,0.2-0.8,0.5-1.2c0.3-0.3,0.7-0.5,1.2-0.5c0.5,0,0.8,0.2,1.2,0.5
			C144.9,44.5,145.1,44.8,145.1,45.3z"/>
	</g>
</g>
</svg>
