<?xml version="1.0" encoding="utf-8"?>
<!-- Generator: Adobe Illustrator 21.1.0, SVG Export Plug-In . SVG Version: 6.00 Build 0)  -->
<svg version="1.1" id="Layer_1" xmlns="http://www.w3.org/2000/svg" xmlns:xlink="http://www.w3.org/1999/xlink" x="0px" y="0px"
	 viewBox="0 0 150 80" style="enable-background:new 0 0 150 80;" xml:space="preserve">
<style type="text/css">
	.st0{fill:#2991E2;}
	.st1{fill:#F7811E;}
	.st2{fill:#FFFFFF;}
</style>
<g>
	<rect x="673.8" y="-370" class="st0" width="150" height="80"/>
	<g>
		<path class="st1" d="M689.9-308.6h17.9c0.2,0,0.4-0.1,0.4-0.4v-18c0-0.2-0.1-0.4-0.4-0.4h-17.9c-0.2,0-0.4,0.1-0.4,0.4v17.9
			C689.6-308.8,689.7-308.6,689.9-308.6z"/>
		<path class="st1" d="M689.6-350.5v17.9c0,0.2,0.1,0.4,0.4,0.4h17.9c0.2,0,0.4-0.1,0.4-0.4v-17.9c0-0.2-0.1-0.4-0.4-0.4h-17.9
			C689.7-350.9,689.6-350.7,689.6-350.5z"/>
		<path class="st2" d="M680.3-307.3h37.2v-44.9h-37.2V-307.3z M689.6-326.9c0-0.2,0.1-0.4,0.4-0.4h17.9c0.2,0,0.4,0.1,0.4,0.4v17.9
			c0,0.2-0.1,0.4-0.4,0.4h-17.9c-0.2,0-0.4-0.1-0.4-0.4V-326.9z M710.4-350.5c0-0.2,0.1-0.4,0.4-0.4h4.4h0.1c0.2,0,0.4,0.1,0.4,0.4
			v4.5c0,0.2-0.1,0.4-0.4,0.4h-0.1h-4.4c-0.2,0-0.4-0.1-0.4-0.4V-350.5z M710.4-343.1c0-0.2,0.1-0.4,0.4-0.4h4.5
			c0.2,0,0.4,0.1,0.4,0.4v4.5c0,0.2-0.1,0.4-0.4,0.4h-4.5c-0.2,0-0.4-0.1-0.4-0.4V-343.1z M710.4-335.7c0-0.2,0.1-0.4,0.4-0.4h4.5
			c0.2,0,0.4,0.1,0.4,0.4v4.5c0,0.2-0.1,0.4-0.4,0.4h-4.5c-0.2,0-0.4-0.1-0.4-0.4V-335.7z M710.4-328.3c0-0.2,0.1-0.4,0.4-0.4h4.5
			c0.2,0,0.4,0.1,0.4,0.4v4.5c0,0.2-0.1,0.4-0.4,0.4h-4.5c-0.2,0-0.4-0.1-0.4-0.4V-328.3z M710.4-320.9c0-0.2,0.1-0.4,0.4-0.4h4.5
			c0.2,0,0.4,0.1,0.4,0.4v4.5c0,0.2-0.1,0.4-0.4,0.4h-4.5c-0.2,0-0.4-0.1-0.4-0.4V-320.9z M710.4-313.6c0-0.2,0.1-0.4,0.4-0.4h4.5
			c0.2,0,0.4,0.1,0.4,0.4v4.5c0,0.2-0.1,0.4-0.4,0.4h-4.5c-0.2,0-0.4-0.1-0.4-0.4V-313.6z M707.8-350.9c0.2,0,0.4,0.1,0.4,0.4v17.9
			c0,0.2-0.1,0.4-0.4,0.4h-17.9c-0.2,0-0.4-0.1-0.4-0.4v-17.8c0-0.2,0.1-0.4,0.4-0.4L707.8-350.9L707.8-350.9z M682-350.5
			c0-0.2,0.1-0.4,0.4-0.4h4.5c0.2,0,0.4,0.1,0.4,0.4v4.5c0,0.2-0.1,0.4-0.4,0.4h-4.5c-0.2,0-0.4-0.1-0.4-0.4V-350.5z M682-343.1
			c0-0.2,0.1-0.4,0.4-0.4h4.5c0.2,0,0.4,0.1,0.4,0.4v4.5c0,0.2-0.1,0.4-0.4,0.4h-4.5c-0.2,0-0.4-0.1-0.4-0.4V-343.1z M682-335.7
			c0-0.2,0.1-0.4,0.4-0.4h4.5c0.2,0,0.4,0.1,0.4,0.4v4.5c0,0.2-0.1,0.4-0.4,0.4h-4.5c-0.2,0-0.4-0.1-0.4-0.4V-335.7z M682-328.3
			c0-0.2,0.1-0.4,0.4-0.4h4.5c0.2,0,0.4,0.1,0.4,0.4v4.5c0,0.2-0.1,0.4-0.4,0.4h-4.5c-0.2,0-0.4-0.1-0.4-0.4V-328.3z M682-320.9
			c0-0.2,0.1-0.4,0.4-0.4h4.5c0.2,0,0.4,0.1,0.4,0.4v4.5c0,0.2-0.1,0.4-0.4,0.4h-4.5c-0.2,0-0.4-0.1-0.4-0.4V-320.9z M682-313.6
			c0-0.2,0.1-0.4,0.4-0.4h4.5c0.2,0,0.4,0.1,0.4,0.4v4.5c0,0.2-0.1,0.4-0.4,0.4h-4.5c-0.2,0-0.4-0.1-0.4-0.4V-313.6z"/>
		<path class="st2" d="M732.8-345.8l-1.8,0.1v-1.5c0-0.4,0.4-0.7,1-0.7c0.4,0,0.6,0,0.8,0c0.6-0.1,0.9-0.2,1.2-0.5
			c0.3-0.4,0.5-1,0.5-1.9c0-1.2-0.2-1.9-0.7-2.2c-0.3-0.1-0.5-0.2-0.7-0.3c-0.2,0-0.5-0.1-0.9-0.1c-1.9,0-3.4,0.6-4.4,1.7
			s-1.5,2.5-1.5,3.8v1.4h-1c-1.1,0-1.7,0.7-1.7,2.2c0,1,0.1,1.7,0.5,2c0.2,0.2,0.6,0.3,1,0.4h1v7.4c0,0.4,0,0.7,0.1,0.9
			c0,0.2,0.1,0.4,0.3,0.7c0.1,0.3,0.4,0.4,0.7,0.6c0.4,0.1,0.8,0.1,1.4,0.1c0.6,0,1-0.1,1.4-0.1c0.4-0.1,0.6-0.4,0.8-0.6
			c0.1-0.4,0.3-0.9,0.3-1.6v-7.2l1.8,0.1c0.7,0,1.3-0.1,1.7-0.4c0.3-0.1,0.4-0.4,0.6-0.7c0.1-0.4,0.1-0.8,0.1-1.4s-0.1-1-0.1-1.4
			C734.8-345.4,734-345.8,732.8-345.8z"/>
		<path class="st1" d="M741.9-344.4c0-1.2-1.2-2.2-2.6-2.2h-0.1c-1.4,0-2.6,1-2.6,2.2v13.4h5.3C741.9-331,741.9-344.4,741.9-344.4z"
			/>
		<circle class="st1" cx="739.4" cy="-350" r="2.5"/>
		<path class="st2" d="M747.5-331.3c1.8,0.2,3,0.1,3.5-0.1c0.4-0.3,0.6-0.9,0.6-2.2c0-1.1-0.2-1.7-0.6-1.9c-0.2-0.1-0.4-0.2-0.5-0.2
			s-0.4-0.1-0.8-0.1c-0.4,0-0.6-0.1-0.7-0.3c-0.1-0.1-0.1-0.6-0.1-1.2v-12.8c0-0.4,0-0.7-0.1-0.9c0-0.2-0.1-0.5-0.3-0.7
			c-0.3-0.5-1-0.7-2.1-0.7c-1.2,0-1.9,0.2-2.2,0.7c-0.1,0.3-0.2,0.5-0.2,0.7s-0.1,0.5-0.1,0.9v13.1c0,1.9,0.3,3.4,0.8,4.3
			C745.1-332,746-331.5,747.5-331.3z"/>
		<path class="st2" d="M774-332c0.1-0.3,0.2-0.5,0.3-0.7c0-0.2,0.1-0.5,0.1-0.9v-4.8c0-2.6-0.5-4.5-1.5-5.6c-1-1.2-2.2-1.7-3.7-1.7
			c-0.6,0-1.3,0.1-1.9,0.5c-0.6,0.4-1.1,0.7-1.4,1c-0.3,0.3-0.5,0.6-0.7,0.9c-0.9-1.6-2.3-2.4-4.2-2.4c-1.2,0-2.2,0.6-3.1,1.9
			c0-0.6-0.1-1.1-0.5-1.4c-0.3-0.4-1-0.5-2-0.5s-1.7,0.2-1.9,0.7c-0.1,0.3-0.2,0.5-0.3,0.7c0,0.2-0.1,0.5-0.1,0.9v9.7
			c0,0.4,0,0.8,0.1,0.9c0,0.2,0.1,0.4,0.2,0.7c0.3,0.5,0.9,0.7,2.2,0.7c1.2,0,1.9-0.2,2.2-0.7c0.1-0.3,0.2-0.5,0.3-0.7
			c0-0.2,0.1-0.5,0.1-0.9v-4.8c0-1.6,0.6-2.4,1.7-2.4c1.2,0,1.7,0.8,1.7,2.4v4.8c0,0.4,0,0.7,0.1,0.9c0,0.2,0.1,0.4,0.2,0.7
			c0.3,0.5,0.9,0.8,2.2,0.8c1.2,0,1.9-0.2,2.2-0.7c0.1-0.3,0.2-0.5,0.3-0.7c0-0.2,0.1-0.5,0.1-0.9v-4.9c0-0.8,0.1-1.4,0.4-1.8
			s0.6-0.6,1.3-0.6c1.2,0,1.7,0.8,1.7,2.4v4.8c0,0.4,0,0.7,0.1,0.9c0,0.2,0.1,0.4,0.2,0.7c0.3,0.5,0.9,0.8,2.2,0.8
			C773-331.2,773.7-331.5,774-332z"/>
		<path class="st2" d="M786.4-339.5c-1.2-0.6-2.3-0.9-3.5-1.1c-1.2-0.1-1.9-0.5-1.9-1.1c0-0.4,0.6-0.6,1.7-0.6
			c0.7,0,1.4,0.1,1.9,0.4c0.6,0.3,1,0.4,1.2,0.4c0.4,0,0.9-0.3,1.2-0.9c0.4-0.6,0.6-1.2,0.6-1.7c0-0.4-0.3-0.8-0.9-1.1
			c-1.4-0.6-2.7-0.9-4-0.9c-4,0-6,1.4-6,4.4c0,1,0.1,1.8,0.5,2.5c0.4,0.7,0.8,1.2,1.3,1.6c1.2,0.7,2.3,1.2,3.5,1.3
			c1.2,0.1,1.9,0.4,1.9,0.8c0,0.4-0.6,0.6-1.7,0.6c-0.6,0-1.3-0.2-2.1-0.6c-0.8-0.4-1.4-0.6-1.8-0.6c-0.4,0-0.8,0.1-1,0.5
			c-0.7,1-1.1,1.7-1.1,2.2c0,0.5,0.1,0.9,0.5,1.1c1.7,1,3.3,1.5,5.1,1.5c1.8,0,3.2-0.3,4.5-0.9c0.6-0.4,1.2-0.9,1.5-1.5
			c0.4-0.6,0.5-1.5,0.5-2.5s-0.1-1.7-0.5-2.4C787.3-338.8,786.9-339.3,786.4-339.5z"/>
		<path class="st1" d="M805.4-336.6h2.4c0.6,0,1.1-0.1,1.4-0.2c0.2-0.1,0.4-0.4,0.5-0.6c0.1-0.3,0.1-0.7,0.1-1.2s-0.1-0.9-0.1-1.2
			c-0.1-0.3-0.3-0.6-0.6-0.7c-0.3-0.1-0.8-0.2-1.4-0.2h-2.2v-2.2c0-0.6-0.1-1.2-0.2-1.5c-0.1-0.2-0.4-0.4-0.6-0.5
			c-0.3-0.1-0.7-0.1-1.2-0.1c-0.5,0-0.9,0.1-1.2,0.1c-0.3,0.1-0.6,0.3-0.7,0.6c-0.1,0.3-0.2,0.8-0.2,1.4v2.2h-2.4
			c-0.6,0-1.2,0.1-1.5,0.2c-0.3,0.1-0.4,0.4-0.5,0.6c-0.1,0.3-0.1,0.7-0.1,1.2c0,0.5,0.1,0.9,0.1,1.2c0.1,0.3,0.3,0.6,0.6,0.7
			c0.3,0.1,0.7,0.2,1.3,0.2h2.4v2.2c0,0.6,0.1,1.2,0.2,1.5c0.1,0.2,0.4,0.4,0.6,0.5s0.7,0.1,1.2,0.1c0.5,0,0.9-0.1,1.2-0.1
			c0.3-0.1,0.6-0.3,0.7-0.6c0.1-0.3,0.2-0.8,0.2-1.4L805.4-336.6L805.4-336.6z"/>
		<path class="st2" d="M732.8-322.2L731-322v-1.5c0-0.4,0.4-0.7,1-0.7c0.4,0,0.6,0,0.8,0c0.6-0.1,0.9-0.2,1.2-0.5
			c0.3-0.4,0.5-1,0.5-1.9c0-1.2-0.2-1.9-0.7-2.2c-0.3-0.1-0.5-0.2-0.7-0.3c-0.3,0-0.6,0-1.1,0c-1.9,0-3.4,0.6-4.4,1.7
			s-1.5,2.5-1.5,3.8v1.4h-0.9c-1.1,0-1.7,0.7-1.7,2.2c0,1,0.1,1.7,0.5,2c0.2,0.2,0.6,0.3,1,0.4h1v7.4c0,0.4,0,0.7,0.1,0.9
			c0,0.2,0.1,0.4,0.3,0.7c0.1,0.3,0.4,0.4,0.7,0.6c0.4,0.1,0.8,0.1,1.4,0.1c0.6,0,1-0.1,1.4-0.1c0.4-0.1,0.6-0.4,0.8-0.6
			c0.1-0.4,0.3-0.9,0.3-1.6v-7.3l1.8,0.1c0.7,0,1.3-0.1,1.7-0.4c0.3-0.1,0.4-0.4,0.6-0.7c0.1-0.4,0.1-0.8,0.1-1.4s-0.1-1-0.1-1.4
			C734.8-321.8,734-322.2,732.8-322.2z"/>
		<path class="st2" d="M746.6-322c-0.4-0.1-0.6-0.2-0.9-0.2c-0.3-0.1-0.6-0.1-1.1-0.1s-0.9,0.1-1.5,0.5c-0.6,0.3-0.9,0.6-1.2,0.7
			c-0.1,0.2-0.3,0.4-0.4,0.5c0-0.3-0.1-0.6-0.3-0.9c-0.3-0.4-0.9-0.6-2.1-0.6s-1.9,0.2-2.2,0.7c-0.1,0.3-0.2,0.5-0.2,0.7
			c0,0.2-0.1,0.5-0.1,0.9v9.7c0,0.4,0,0.6,0,0.8c0.1,0.5,0.2,0.9,0.5,1.2c0.4,0.3,1,0.5,1.9,0.5c1.2,0,1.9-0.2,2.2-0.7
			c0.1-0.3,0.2-0.5,0.3-0.7c0-0.2,0.1-0.5,0.1-0.9v-5.8c0-0.5,0.2-0.9,0.6-1.3c0.4-0.4,0.9-0.5,1.4-0.5c0.5,0,0.9,0.1,1.2,0.2
			c0.3,0.1,0.6,0.2,0.9,0.2c0.6,0,1.2-0.4,1.5-1.1c0.4-0.7,0.5-1.4,0.5-1.9s-0.1-1-0.4-1.3C747.2-321.7,747-321.9,746.6-322z"/>
		<path class="st2" d="M769.6-314.2c0.6-0.6,0.9-1.4,0.9-2.5s-0.3-2.2-0.9-3.2c-1.2-1.8-3.1-2.7-5.6-2.7c-2.2,0-4.1,0.7-5.6,2.1
			c-1.5,1.4-2.2,3.2-2.2,5.6c0,1.9,0.6,3.5,1.7,5c0.6,0.8,1.4,1.4,2.5,1.9c1.1,0.5,2.2,0.7,3.6,0.7c3.9,0,5.9-0.8,5.9-2.5
			c0-0.4-0.1-0.8-0.4-1.3c-0.4-0.9-0.9-1.2-1.5-1.2c-0.3,0-0.6,0.1-1.1,0.3l-0.3,0.1c-0.6,0.2-1.4,0.4-2.5,0.4
			c-0.6,0-1.2-0.1-1.8-0.5c-0.6-0.4-0.9-0.8-0.9-1.3h6.6C768.5-313.4,769-313.6,769.6-314.2z M764.6-315.8h-3.5
			c0-0.6,0.3-1.1,0.9-1.6c0.6-0.5,1.2-0.7,1.8-0.7c0.6,0,1.1,0.1,1.4,0.4c0.3,0.3,0.5,0.6,0.5,1
			C765.7-316.2,765.4-315.8,764.6-315.8z"/>
		<path class="st2" d="M780.4-322.2c-0.7,0-1.4,0.2-2.1,0.6c-0.2,0.1-0.5,0.4-0.7,0.6c-0.3,0.2-0.4,0.4-0.5,0.6
			c0-0.4-0.1-0.8-0.3-1.2c-0.3-0.4-0.9-0.6-2.1-0.6s-1.9,0.2-2.2,0.7c-0.1,0.3-0.2,0.5-0.3,0.7c0,0.2-0.1,0.5-0.1,0.9v9.8
			c0,0.4,0,0.7,0.1,0.9c0,0.2,0.1,0.4,0.2,0.7c0.3,0.5,0.9,0.7,2.2,0.7c1.2,0,1.9-0.2,2.2-0.7c0.1-0.3,0.2-0.5,0.3-0.7
			c0-0.2,0.1-0.5,0.1-0.9v-4.9c0-0.7,0.2-1.3,0.6-1.7c0.4-0.4,1-0.6,1.8-0.6c0.7,0,1.3,0.2,1.7,0.6c0.4,0.4,0.6,1,0.6,1.8v4.8
			c0,0.6,0.1,1.1,0.1,1.4c0.2,0.6,0.9,1,2.2,1c1.2,0,1.9-0.2,2.2-0.7c0.1-0.3,0.2-0.5,0.2-0.7c0-0.2,0.1-0.5,0.1-0.9v-4.8
			c0-2-0.6-3.8-1.8-5.2C783.8-321.5,782.3-322.2,780.4-322.2z"/>
		<path class="st2" d="M803.1-328.3c-0.1-0.3-0.4-0.5-0.7-0.6c-0.4-0.1-0.8-0.1-1.4-0.1c-0.6,0-1.1,0.1-1.4,0.1
			c-0.4,0.1-0.6,0.3-0.7,0.6c-0.1,0.3-0.2,0.5-0.2,0.7c0,0.2-0.1,0.5-0.1,0.9v5.8c-0.7-0.9-1.8-1.4-3.2-1.4c-1.7,0-3.2,0.7-4.5,2.2
			c-1.4,1.4-2.1,3.2-2.1,5.1c0,1.9,0.6,3.6,2,5.1c1.4,1.4,2.9,2.2,4.5,2.2c1.4,0,2.5-0.4,3.2-1.3c0.1,0.9,0.9,1.4,2.2,1.4
			s2.1-0.2,2.3-0.7c0.1-0.3,0.2-0.5,0.3-0.7c0-0.2,0.1-0.5,0.1-0.9v-16.5c0-0.4,0-0.7-0.1-0.9C803.3-327.7,803.3-328,803.1-328.3z
			 M797.8-313.2c-0.4,0.5-1,0.7-1.7,0.7c-0.6,0-1.3-0.2-1.7-0.7c-0.5-0.5-0.7-1.1-0.7-1.7s0.2-1.2,0.6-1.7c0.4-0.5,1-0.8,1.8-0.8
			c0.7,0,1.3,0.3,1.7,0.8c0.4,0.5,0.6,1.1,0.6,1.7C798.5-314.3,798.2-313.7,797.8-313.2z"/>
		<path class="st2" d="M815.5-316c-1.2-0.6-2.3-0.9-3.5-1.1c-1.2-0.1-1.9-0.5-1.9-1.1c0-0.4,0.6-0.6,1.7-0.6c0.7,0,1.4,0.1,1.9,0.4
			c0.6,0.3,1,0.4,1.2,0.4c0.4,0,0.9-0.3,1.2-0.9c0.4-0.6,0.6-1.2,0.6-1.7c0-0.4-0.3-0.8-0.9-1.1c-1.4-0.6-2.7-0.9-4-0.9
			c-4,0-6,1.4-6,4.4c0,1,0.1,1.8,0.5,2.5c0.4,0.7,0.8,1.2,1.3,1.6c1.2,0.7,2.3,1.2,3.5,1.3c1.2,0.1,1.9,0.4,1.9,0.8
			c0,0.4-0.6,0.6-1.7,0.6c-0.6,0-1.3-0.2-2.1-0.6c-0.8-0.4-1.4-0.6-1.8-0.6s-0.8,0.1-1,0.5c-0.7,1-1.1,1.7-1.1,2.2
			c0,0.5,0.1,0.9,0.5,1.1c1.7,1,3.3,1.5,5.1,1.5c1.8,0,3.2-0.3,4.5-0.9c0.6-0.4,1.2-0.9,1.5-1.5s0.5-1.5,0.5-2.5
			c0-0.9-0.1-1.7-0.5-2.4C816.5-315.2,816-315.7,815.5-316z"/>
		<path class="st1" d="M751.9-323.1h-0.1c-1.4,0-2.6,1-2.6,2.2v13.4h5.3v-13.4C754.5-322.1,753.3-323.1,751.9-323.1z"/>
		<circle class="st1" cx="751.9" cy="-326.6" r="2.5"/>
	</g>
</g>
<rect class="st0" width="150" height="80"/>
<g>
	<path class="st1" d="M15.5,61.1h18.1c0.2,0,0.4-0.1,0.4-0.4V42.6c0-0.2-0.1-0.4-0.4-0.4H15.5c-0.2,0-0.4,0.1-0.4,0.4v18.1
		C15.2,60.9,15.3,61.1,15.5,61.1z"/>
	<path class="st1" d="M15.2,18.9v18.1c0,0.2,0.1,0.4,0.4,0.4h18.1c0.2,0,0.4-0.1,0.4-0.4V18.9c0-0.2-0.1-0.4-0.4-0.4H15.5
		C15.3,18.4,15.2,18.7,15.2,18.9z"/>
	<path class="st2" d="M5.8,62.4h37.5V17.1H5.8V62.4z M15.2,42.6c0-0.2,0.1-0.4,0.4-0.4h18.1c0.2,0,0.4,0.1,0.4,0.4v18.1
		c0,0.2-0.1,0.4-0.4,0.4H15.5c-0.2,0-0.4-0.1-0.4-0.4V42.6z M36.2,18.9c0-0.2,0.1-0.4,0.4-0.4H41h0.1c0.2,0,0.4,0.1,0.4,0.4v4.6
		c0,0.2-0.1,0.4-0.4,0.4H41h-4.4c-0.2,0-0.4-0.1-0.4-0.4V18.9z M36.2,26.3c0-0.2,0.1-0.4,0.4-0.4h4.6c0.2,0,0.4,0.1,0.4,0.4v4.6
		c0,0.2-0.1,0.4-0.4,0.4h-4.6c-0.2,0-0.4-0.1-0.4-0.4V26.3z M36.2,33.7c0-0.2,0.1-0.4,0.4-0.4h4.6c0.2,0,0.4,0.1,0.4,0.4v4.6
		c0,0.2-0.1,0.4-0.4,0.4h-4.6c-0.2,0-0.4-0.1-0.4-0.4V33.7z M36.2,41.2c0-0.2,0.1-0.4,0.4-0.4h4.6c0.2,0,0.4,0.1,0.4,0.4v4.6
		c0,0.2-0.1,0.4-0.4,0.4h-4.6c-0.2,0-0.4-0.1-0.4-0.4V41.2z M36.2,48.7c0-0.2,0.1-0.4,0.4-0.4h4.6c0.2,0,0.4,0.1,0.4,0.4v4.6
		c0,0.2-0.1,0.4-0.4,0.4h-4.6c-0.2,0-0.4-0.1-0.4-0.4V48.7z M36.2,56.1c0-0.2,0.1-0.4,0.4-0.4h4.6c0.2,0,0.4,0.1,0.4,0.4v4.6
		c0,0.2-0.1,0.4-0.4,0.4h-4.6c-0.2,0-0.4-0.1-0.4-0.4V56.1z M33.6,18.4c0.2,0,0.4,0.1,0.4,0.4v18.1c0,0.2-0.1,0.4-0.4,0.4H15.5
		c-0.2,0-0.4-0.1-0.4-0.4v-18c0-0.2,0.1-0.4,0.4-0.4L33.6,18.4L33.6,18.4z M7.6,18.9c0-0.2,0.1-0.4,0.4-0.4h4.6
		c0.2,0,0.4,0.1,0.4,0.4v4.6c0,0.2-0.1,0.4-0.4,0.4H8c-0.2,0-0.4-0.1-0.4-0.4V18.9z M7.6,26.3c0-0.2,0.1-0.4,0.4-0.4h4.6
		c0.2,0,0.4,0.1,0.4,0.4v4.6c0,0.2-0.1,0.4-0.4,0.4H8c-0.2,0-0.4-0.1-0.4-0.4V26.3z M7.6,33.7c0-0.2,0.1-0.4,0.4-0.4h4.6
		c0.2,0,0.4,0.1,0.4,0.4v4.6c0,0.2-0.1,0.4-0.4,0.4H8c-0.2,0-0.4-0.1-0.4-0.4V33.7z M7.6,41.2c0-0.2,0.1-0.4,0.4-0.4h4.6
		c0.2,0,0.4,0.1,0.4,0.4v4.6c0,0.2-0.1,0.4-0.4,0.4H8c-0.2,0-0.4-0.1-0.4-0.4V41.2z M7.6,48.7c0-0.2,0.1-0.4,0.4-0.4h4.6
		c0.2,0,0.4,0.1,0.4,0.4v4.6c0,0.2-0.1,0.4-0.4,0.4H8c-0.2,0-0.4-0.1-0.4-0.4V48.7z M7.6,56.1c0-0.2,0.1-0.4,0.4-0.4h4.6
		c0.2,0,0.4,0.1,0.4,0.4v4.6c0,0.2-0.1,0.4-0.4,0.4H8c-0.2,0-0.4-0.1-0.4-0.4V56.1z"/>
	<path class="st2" d="M58.8,23.6L57,23.8v-1.5c0-0.4,0.4-0.7,1-0.7c0.4,0,0.6,0,0.8,0c0.6-0.1,0.9-0.2,1.2-0.5
		c0.3-0.4,0.5-1,0.5-1.9c0-1.2-0.2-1.9-0.7-2.2c-0.3-0.1-0.5-0.2-0.7-0.3c-0.2,0-0.5-0.1-0.9-0.1c-2,0-3.4,0.6-4.4,1.7
		s-1.5,2.5-1.5,3.9v1.5h-1c-1.1,0-1.7,0.7-1.7,2.3c0,1,0.1,1.7,0.5,2c0.2,0.2,0.6,0.3,1,0.4h1v7.4c0,0.4,0,0.7,0.1,0.9
		c0,0.2,0.1,0.4,0.3,0.7c0.1,0.3,0.4,0.4,0.7,0.6s0.8,0.1,1.4,0.1c0.6,0,1-0.1,1.4-0.1c0.4-0.1,0.7-0.4,0.8-0.7
		c0.1-0.4,0.3-0.9,0.3-1.6v-7.3l1.8,0.1c0.7,0,1.3-0.1,1.7-0.4c0.3-0.1,0.4-0.4,0.6-0.7c0.1-0.4,0.1-0.8,0.1-1.4
		c0-0.6-0.1-1-0.1-1.4C60.9,24,60.1,23.6,58.8,23.6z"/>
	<path class="st1" d="M68,25c0-1.2-1.2-2.2-2.6-2.2h-0.1c-1.5,0-2.6,1-2.6,2.2v13.6H68C68,38.5,68,25,68,25z"/>
	<circle class="st1" cx="65.5" cy="19.3" r="2.6"/>
	<path class="st2" d="M73.6,38.2c1.8,0.2,3,0.1,3.5-0.1c0.4-0.3,0.6-0.9,0.6-2.2c0-1.1-0.2-1.7-0.6-2c-0.2-0.1-0.4-0.2-0.5-0.2
		s-0.4-0.1-0.8-0.1c-0.4,0-0.7-0.1-0.7-0.3c-0.1-0.1-0.1-0.6-0.1-1.2V19.2c0-0.4,0-0.7-0.1-0.9c0-0.2-0.1-0.5-0.3-0.7
		c-0.3-0.5-1-0.7-2.1-0.7c-1.2,0-1.9,0.2-2.2,0.7C70.1,17.8,70,18,70,18.2S70,18.7,70,19.2v13.3c0,2,0.3,3.4,0.8,4.4
		C71.2,37.5,72.2,38,73.6,38.2z"/>
	<path class="st2" d="M100.4,37.5c0.1-0.3,0.2-0.5,0.3-0.7c0-0.2,0.1-0.5,0.1-0.9V31c0-2.6-0.5-4.5-1.5-5.7c-1-1.2-2.3-1.7-3.7-1.7
		c-0.7,0-1.3,0.1-2,0.5s-1.1,0.7-1.4,1c-0.3,0.3-0.5,0.6-0.7,0.9c-0.9-1.6-2.3-2.4-4.2-2.4c-1.2,0-2.3,0.7-3.1,2
		c0-0.7-0.1-1.1-0.5-1.5c-0.3-0.4-1-0.5-2-0.5c-1,0-1.7,0.2-2,0.7c-0.1,0.3-0.2,0.5-0.3,0.7c0,0.2-0.1,0.5-0.1,0.9v9.8
		c0,0.4,0,0.8,0.1,0.9c0,0.2,0.1,0.4,0.2,0.7c0.3,0.5,0.9,0.7,2.2,0.7c1.2,0,1.9-0.2,2.2-0.7c0.1-0.3,0.2-0.5,0.3-0.7
		c0-0.2,0.1-0.5,0.1-0.9V31c0-1.6,0.6-2.4,1.7-2.4c1.2,0,1.7,0.8,1.7,2.4v4.9c0,0.4,0,0.7,0.1,0.9c0,0.2,0.1,0.4,0.2,0.7
		c0.3,0.5,0.9,0.8,2.2,0.8c1.2,0,1.9-0.2,2.2-0.7c0.1-0.3,0.2-0.5,0.3-0.7c0-0.2,0.1-0.5,0.1-0.9v-5c0-0.8,0.1-1.4,0.4-1.8
		c0.2-0.4,0.7-0.7,1.3-0.7c1.2,0,1.7,0.8,1.7,2.4v4.9c0,0.4,0,0.7,0.1,0.9c0,0.2,0.1,0.4,0.2,0.7c0.3,0.5,0.9,0.8,2.2,0.8
		C99.4,38.3,100.1,38,100.4,37.5z"/>
	<path class="st2" d="M112.9,29.9c-1.2-0.6-2.3-0.9-3.6-1.1s-1.9-0.5-1.9-1.1c0-0.4,0.6-0.6,1.7-0.6c0.7,0,1.4,0.1,2,0.4
		c0.6,0.3,1,0.4,1.2,0.4c0.4,0,0.9-0.3,1.2-0.9c0.4-0.7,0.6-1.2,0.6-1.7c0-0.4-0.3-0.8-0.9-1.1c-1.4-0.7-2.8-0.9-4.1-0.9
		c-4,0-6,1.5-6,4.4c0,1,0.1,1.8,0.5,2.6c0.4,0.7,0.8,1.2,1.3,1.6c1.2,0.7,2.3,1.2,3.5,1.3c1.2,0.1,1.9,0.4,1.9,0.8
		c0,0.4-0.6,0.7-1.7,0.7c-0.7,0-1.3-0.2-2.1-0.7c-0.8-0.4-1.4-0.7-1.8-0.7s-0.8,0.1-1,0.5c-0.7,1-1.1,1.7-1.1,2.2
		c0,0.5,0.1,0.9,0.5,1.1c1.7,1,3.4,1.5,5.2,1.5s3.3-0.3,4.5-0.9c0.7-0.4,1.2-0.9,1.5-1.5c0.4-0.7,0.5-1.5,0.5-2.5
		c0-0.9-0.1-1.7-0.5-2.4C113.8,30.7,113.4,30.2,112.9,29.9z"/>
	<path class="st1" d="M132.1,32.9h2.4c0.6,0,1.1-0.1,1.5-0.2c0.2-0.1,0.4-0.4,0.5-0.7c0.1-0.3,0.1-0.7,0.1-1.2
		c0-0.5-0.1-0.9-0.1-1.2c-0.1-0.3-0.3-0.6-0.6-0.7c-0.3-0.1-0.8-0.2-1.5-0.2h-2.3v-2.3c0-0.7-0.1-1.2-0.2-1.5
		c-0.1-0.2-0.4-0.4-0.7-0.5c-0.3-0.1-0.7-0.1-1.2-0.1c-0.5,0-0.9,0.1-1.2,0.1c-0.3,0.1-0.6,0.3-0.7,0.6c-0.1,0.3-0.2,0.8-0.2,1.5
		v2.3h-2.4c-0.7,0-1.2,0.1-1.5,0.2c-0.3,0.1-0.4,0.4-0.5,0.7c-0.1,0.3-0.1,0.7-0.1,1.2c0,0.5,0.1,0.9,0.1,1.2
		c0.1,0.3,0.3,0.6,0.6,0.7c0.3,0.1,0.7,0.2,1.3,0.2h2.4v2.3c0,0.7,0.1,1.2,0.2,1.5c0.1,0.2,0.4,0.4,0.7,0.5s0.7,0.1,1.2,0.1
		c0.5,0,0.9-0.1,1.2-0.1c0.3-0.1,0.6-0.3,0.7-0.6c0.1-0.3,0.2-0.8,0.2-1.5L132.1,32.9L132.1,32.9z"/>
	<path class="st2" d="M58.8,47.4L57,47.6v-1.5c0-0.4,0.4-0.7,1-0.7c0.4,0,0.6,0,0.8,0c0.6-0.1,0.9-0.2,1.2-0.5
		c0.3-0.4,0.5-1,0.5-1.9c0-1.2-0.2-1.9-0.7-2.2c-0.3-0.1-0.5-0.2-0.7-0.3c-0.3,0-0.7,0-1.1,0c-2,0-3.4,0.6-4.4,1.7
		c-1,1.2-1.5,2.5-1.5,3.9v1.5h-0.9c-1.1,0-1.7,0.7-1.7,2.3c0,1,0.1,1.7,0.5,2c0.2,0.2,0.6,0.3,1,0.4h1v7.4c0,0.4,0,0.7,0.1,0.9
		c0,0.2,0.1,0.4,0.3,0.7c0.1,0.3,0.4,0.4,0.7,0.6s0.8,0.1,1.4,0.1c0.6,0,1-0.1,1.4-0.1c0.4-0.1,0.7-0.4,0.8-0.7
		c0.1-0.4,0.3-0.9,0.3-1.6v-7.4l1.8,0.1c0.7,0,1.3-0.1,1.7-0.4c0.3-0.1,0.4-0.4,0.6-0.7c0.1-0.4,0.1-0.8,0.1-1.4
		c0-0.6-0.1-1-0.1-1.4C60.9,47.8,60.1,47.4,58.8,47.4z"/>
	<path class="st2" d="M72.7,47.6c-0.4-0.1-0.7-0.2-0.9-0.2c-0.3-0.1-0.7-0.1-1.1-0.1s-0.9,0.1-1.5,0.5c-0.6,0.3-0.9,0.6-1.2,0.7
		c-0.1,0.2-0.3,0.4-0.4,0.5c0-0.3-0.1-0.7-0.3-0.9c-0.3-0.4-0.9-0.7-2.1-0.7c-1.2,0-1.9,0.2-2.2,0.7c-0.1,0.3-0.2,0.5-0.2,0.7
		s-0.1,0.5-0.1,0.9v9.8c0,0.4,0,0.7,0,0.8c0.1,0.5,0.2,0.9,0.5,1.2c0.4,0.3,1,0.5,1.9,0.5c1.2,0,1.9-0.2,2.2-0.7
		c0.1-0.3,0.2-0.5,0.3-0.7c0-0.2,0.1-0.5,0.1-0.9v-5.9c0-0.5,0.2-0.9,0.7-1.3s0.9-0.5,1.4-0.5c0.5,0,0.9,0.1,1.2,0.2
		c0.3,0.1,0.7,0.2,0.9,0.2c0.7,0,1.2-0.4,1.5-1.1c0.4-0.7,0.5-1.4,0.5-2c0-0.6-0.1-1-0.4-1.3C73.4,47.9,73.1,47.7,72.7,47.6z"/>
	<path class="st2" d="M96,55.5c0.6-0.6,0.9-1.4,0.9-2.6c0-1.2-0.3-2.2-0.9-3.2c-1.2-1.8-3.1-2.8-5.7-2.8c-2.3,0-4.2,0.7-5.7,2.1
		c-1.5,1.4-2.3,3.3-2.3,5.6c0,1.9,0.6,3.6,1.7,5c0.6,0.8,1.5,1.4,2.5,1.9c1.1,0.5,2.3,0.7,3.6,0.7c3.9,0,6-0.8,6-2.5
		c0-0.4-0.1-0.8-0.4-1.3c-0.4-0.9-0.9-1.2-1.5-1.2c-0.3,0-0.7,0.1-1.1,0.3l-0.3,0.1c-0.6,0.2-1.5,0.4-2.6,0.4
		c-0.6,0-1.2-0.1-1.8-0.5s-0.9-0.8-0.9-1.3h6.6C94.8,56.3,95.4,56.1,96,55.5z M91,53.8h-3.5c0-0.6,0.3-1.1,0.9-1.6
		c0.6-0.5,1.2-0.7,1.8-0.7c0.6,0,1.1,0.1,1.4,0.4c0.3,0.3,0.5,0.6,0.5,1C92.1,53.5,91.7,53.8,91,53.8z"/>
	<path class="st2" d="M106.8,47.4c-0.7,0-1.5,0.2-2.1,0.7c-0.2,0.1-0.5,0.4-0.7,0.6c-0.3,0.2-0.4,0.4-0.5,0.6c0-0.4-0.1-0.8-0.3-1.2
		c-0.3-0.4-0.9-0.7-2.1-0.7c-1.2,0-1.9,0.2-2.2,0.7c-0.1,0.3-0.2,0.5-0.3,0.7c0,0.2-0.1,0.5-0.1,0.9v9.9c0,0.4,0,0.7,0.1,0.9
		c0,0.2,0.1,0.4,0.2,0.7c0.3,0.5,0.9,0.7,2.2,0.7c1.2,0,1.9-0.2,2.2-0.7c0.1-0.3,0.2-0.5,0.3-0.7c0-0.2,0.1-0.5,0.1-0.9v-5
		c0-0.7,0.2-1.3,0.7-1.7c0.4-0.4,1-0.7,1.8-0.7c0.7,0,1.3,0.2,1.7,0.7c0.4,0.4,0.7,1,0.7,1.8v4.9c0,0.7,0.1,1.1,0.1,1.5
		c0.2,0.7,0.9,1,2.3,1c1.2,0,1.9-0.2,2.2-0.7c0.1-0.3,0.2-0.5,0.2-0.7s0.1-0.5,0.1-0.9v-4.9c0-2-0.6-3.8-1.8-5.2
		C110.3,48.1,108.7,47.4,106.8,47.4z"/>
	<path class="st2" d="M129.8,41.2c-0.1-0.3-0.4-0.5-0.7-0.6c-0.4-0.1-0.8-0.1-1.4-0.1c-0.6,0-1.1,0.1-1.4,0.1
		c-0.4,0.1-0.6,0.3-0.7,0.6c-0.1,0.3-0.2,0.5-0.2,0.7s-0.1,0.5-0.1,0.9v5.9c-0.7-0.9-1.8-1.4-3.2-1.4c-1.7,0-3.2,0.7-4.6,2.2
		c-1.4,1.5-2.1,3.2-2.1,5.1c0,2,0.7,3.6,2,5.1c1.4,1.5,2.9,2.2,4.6,2.2c1.4,0,2.5-0.4,3.3-1.3c0.1,0.9,0.9,1.4,2.2,1.4
		c1.3,0,2.1-0.2,2.3-0.7c0.1-0.3,0.2-0.5,0.3-0.7c0-0.2,0.1-0.5,0.1-0.9V43c0-0.4,0-0.7-0.1-0.9C130,41.8,129.9,41.5,129.8,41.2z
		 M124.4,56.5c-0.4,0.5-1,0.7-1.7,0.7c-0.7,0-1.3-0.2-1.7-0.7c-0.5-0.5-0.7-1.1-0.7-1.7c0-0.6,0.2-1.2,0.7-1.7
		c0.4-0.5,1-0.8,1.8-0.8c0.7,0,1.3,0.3,1.7,0.8c0.4,0.5,0.7,1.1,0.7,1.7C125.1,55.4,124.8,56,124.4,56.5z"/>
	<path class="st2" d="M142.3,53.7c-1.2-0.6-2.3-0.9-3.6-1.1s-1.9-0.5-1.9-1.1c0-0.4,0.6-0.6,1.7-0.6c0.7,0,1.4,0.1,2,0.4
		c0.6,0.3,1,0.4,1.2,0.4c0.4,0,0.9-0.3,1.2-0.9c0.4-0.7,0.6-1.2,0.6-1.7c0-0.4-0.3-0.8-0.9-1.1c-1.4-0.7-2.8-0.9-4.1-0.9
		c-4,0-6,1.5-6,4.4c0,1,0.1,1.8,0.5,2.6c0.4,0.7,0.8,1.2,1.3,1.6c1.2,0.7,2.3,1.2,3.5,1.3c1.2,0.1,1.9,0.4,1.9,0.8
		c0,0.4-0.6,0.7-1.7,0.7c-0.7,0-1.3-0.2-2.1-0.7c-0.8-0.4-1.4-0.7-1.8-0.7c-0.4,0-0.8,0.1-1,0.5c-0.7,1-1.1,1.7-1.1,2.2
		c0,0.5,0.1,0.9,0.5,1.1c1.7,1,3.4,1.5,5.2,1.5s3.3-0.3,4.5-0.9c0.7-0.4,1.2-0.9,1.5-1.5s0.5-1.5,0.5-2.5s-0.1-1.7-0.5-2.4
		C143.3,54.4,142.8,54,142.3,53.7z"/>
	<path class="st1" d="M78.1,46.5h-0.1c-1.5,0-2.6,1-2.6,2.2v13.6h5.4V48.7C80.7,47.5,79.5,46.5,78.1,46.5z"/>
	<circle class="st1" cx="78.1" cy="43" r="2.6"/>
</g>
</svg>
