<?xml version="1.0" encoding="utf-8"?>
<!-- Generator: Adobe Illustrator 21.1.0, SVG Export Plug-In . SVG Version: 6.00 Build 0)  -->
<svg version="1.1" id="Layer_1" xmlns="http://www.w3.org/2000/svg" xmlns:xlink="http://www.w3.org/1999/xlink" x="0px" y="0px"
	 viewBox="0 0 150 80" style="enable-background:new 0 0 150 80;" xml:space="preserve">
<style type="text/css">
	.st0{fill:#00FF00;}
	.st1{fill:#FFFFFF;}
</style>
<rect width="150" height="80"/>
<g>
	<g>
		<path class="st0" d="M32.8,10.4c0.9,0,1.6,0.3,2.1,0.8c0.4,0.6,0.6,1.3,0.4,2.2l-0.5,2.7h-6.6l0.7-3.3h-4.1l-1.3,6.2h7.6
			c0.9,0,1.6,0.3,2.1,0.8c0.4,0.6,0.6,1.3,0.4,2.3l-1,4.9c-0.2,0.9-0.7,1.7-1.3,2.3c-0.7,0.6-1.5,0.8-2.4,0.8h-4.3l-0.3,1.6h-2.5
			l0.3-1.6h-4.3c-0.9,0-1.6-0.3-2.1-0.8c-0.4-0.6-0.6-1.3-0.4-2.3l0.5-2.7h6.6l-0.7,3.3h4.1l1.3-6.2h-7.6c-0.9,0-1.6-0.3-2.1-0.8
			c-0.5-0.6-0.6-1.3-0.4-2.3l1-4.9c0.2-0.9,0.7-1.7,1.3-2.3c0.7-0.6,1.5-0.8,2.4-0.8H26l0.3-1.6h2.5l-0.3,1.6H32.8z"/>
		<path class="st0" d="M49.4,31.5h-6.1l3.1-14.8h-3.3l-2.9,13.7h-6.1l4.2-19.8h6.1l-0.8,4h6.9c0.7,0,1.3,0.2,1.6,0.7
			c0.4,0.5,0.5,1.1,0.3,1.8L49.4,31.5z"/>
		<path class="st0" d="M58.2,30.2h-6.1l3.4-15.9h6.1L58.2,30.2z M62,12.6h-6.1l0.5-2.2h6.1L62,12.6z"/>
		<path class="st0" d="M78.6,12.6h-5.9l-0.4,1.8h4.6l-0.5,2.2h-4.6l-2.9,13.7h-6.1l2.9-13.7h-3l0.5-2.2h3c0.1-0.5,0.2-1,0.3-1.4
			c0.1-0.5,0.3-0.9,0.5-1.3c0.2-0.4,0.5-0.7,0.9-0.9c0.4-0.2,0.9-0.4,1.5-0.4h9.6L78.6,12.6z"/>
		<path class="st0" d="M81.6,30.2c-0.9,0-1.6-0.3-2.1-0.8c-0.5-0.6-0.6-1.3-0.4-2.3l2.2-10.6h-3l0.5-2.2h3l0.8-4h6.1l-0.8,4h3
			l-0.5,2.2h-3L85,28.1h3l-0.5,2.2H81.6z"/>
		<g>
			<polygon class="st1" points="29.5,54.8 32.3,54.8 32.8,52.6 30,52.6 			"/>
			<polygon class="st1" points="37,32.8 34.2,32.8 33.7,35.1 36.5,35.1 			"/>
			<path class="st1" d="M39.8,37.5l0.5-2.4h-6.9h-2.8h-0.9c-0.8,0-1.5,0.3-2.1,0.8c-0.6,0.5-1,1.2-1.2,2L24,49.2
				c-0.2,1-0.1,1.9,0.4,2.5c0.5,0.6,1.3,0.9,2.3,0.9h0.2h2.8h6.9l0.5-2.4h-6.5l2.7-12.7H39.8z"/>
		</g>
		<path class="st1" d="M54.5,52.8h-6.1l2.9-13.7H48l-2.9,13.7H39l4.3-21.3h6.1l-1,5.4h6.9c0.7,0,1.3,0.2,1.6,0.7
			c0.4,0.5,0.5,1.1,0.3,1.8L54.5,52.8z"/>
		<path class="st1" d="M72.4,52.8H60.1c-0.9,0-1.6-0.3-2.1-0.8c-0.4-0.6-0.6-1.3-0.4-2.3l1.2-5.9c0.2-0.7,0.5-1.3,1.1-1.8
			c0.6-0.5,1.2-0.7,1.9-0.7h7l0.5-2.2h-6.4l0.5-2.2h10c0.7,0,1.3,0.2,1.6,0.7c0.4,0.5,0.5,1.1,0.3,1.8L72.4,52.8z M65,43.5l-1.5,7.1
			h3.3l1.5-7.1H65z"/>
		<path class="st1" d="M90.9,52.8h-6.1l2.9-13.7h-3.3l-2.9,13.7h-6.1l3.4-15.9h13c0.7,0,1.3,0.2,1.6,0.7c0.4,0.5,0.5,1.1,0.3,1.8
			L90.9,52.8z"/>
		<path class="st1" d="M95.6,54.6h6.3l0.4-1.8H96c-0.9,0-1.6-0.3-2.1-0.8c-0.4-0.6-0.6-1.3-0.4-2.3l2.2-10.3
			c0.2-0.7,0.5-1.3,1.1-1.8c0.6-0.5,1.2-0.7,1.9-0.7h13l-3.5,16.7c-0.2,0.9-0.7,1.7-1.3,2.3c-0.7,0.6-1.5,0.8-2.4,0.8h-9.3
			L95.6,54.6z M101.9,39.1l-2.4,11.5h3.3l2.4-11.5H101.9z"/>
		<path class="st1" d="M113.7,39.4c0.2-0.7,0.5-1.3,1.1-1.8c0.6-0.5,1.2-0.7,1.9-0.7h10.6c0.7,0,1.3,0.2,1.6,0.7
			c0.4,0.5,0.5,1.1,0.3,1.8l-1.9,9h-9.4l-0.5,2.2h9.4l-0.5,2.2H114c-0.9,0-1.6-0.3-2.1-0.8c-0.4-0.6-0.6-1.3-0.4-2.3L113.7,39.4z
			 M119.9,39.1l-1.5,7.1h3.3l1.5-7.1H119.9z"/>
		<g>
			<path class="st0" d="M110.7,34.1c1.5-0.9,2.9-1.9,4.5-2.7c1.4-0.7,2.3-1.7,2.9-3.1c0.5-1.2,1.1-2.3,1.7-3.5
				c0.2,0.1,0.4,0.1,0.5,0.2c1.8,0.6,3.7,1.2,5.5,1.8c0.4,0.1,0.6,0.3,0.7,0.7c0.6,2,1.3,3.9,1.9,5.8c0.2,0.6,0.6,1,1.2,1.1
				c1.1,0.2,1.9-0.9,1.5-2c-0.7-2.1-1.4-4.2-2.1-6.4c-0.3-0.9-0.8-1.5-1.7-1.7c-1.4-0.4-2.7-0.9-4.1-1.4c0.3-1.3,0.7-2.6,1-3.9
				c0-0.1,0.1-0.3,0.2-0.5c0.3,0.6,0.6,1,0.9,1.5c0.5,0.8,0.9,1,1.8,0.9c1.9-0.3,3.8-0.6,5.6-0.8c0.9-0.1,1.4-0.8,1.3-1.6
				c-0.1-0.8-0.8-1.3-1.7-1.2c-1.5,0.2-2.9,0.4-4.4,0.7c-0.4,0.1-0.6,0-0.8-0.4c-0.7-1.3-1.5-2.6-2.3-4c-0.5-0.9-1.3-1.3-2.2-1.2
				c-2.2,0.1-4.5,0.2-6.7,0.4c-0.6,0-1,0.4-1.2,0.9c-0.9,2-1.8,4-2.7,6c-0.1,0.3-0.2,0.6-0.1,0.9c0.1,0.6,0.6,1.1,1.2,1.2
				c0.6,0.1,1.2-0.2,1.5-0.9c0.8-1.6,1.5-3.2,2.2-4.8c0.1-0.2,0.2-0.4,0.4-0.4c0.8-0.1,1.5-0.1,2.4-0.2c-0.4,1.7-0.8,3.2-1.3,4.8
				c-0.3,1-0.4,2-0.8,2.9c-0.7,1.6-1.6,3.2-2.4,4.8c-0.1,0.3-0.4,0.5-0.6,0.7c-1.7,1.1-3.5,2.1-5.2,3.2c-0.9,0.5-1.1,1.3-0.7,2.1
				C109,34.5,109.9,34.6,110.7,34.1z"/>
			<path class="st0" d="M124.5,12.2c1.7,0,3.1-1.3,3.1-3c0-1.7-1.3-3.1-3.1-3.1c-1.7,0-3.1,1.3-3.1,3
				C121.5,10.8,122.8,12.1,124.5,12.2z"/>
		</g>
		<g>
			<polygon class="st1" points="107.6,32.1 107.8,31.6 89.4,31.5 89.3,32 			"/>
			<polygon class="st1" points="51.9,31.8 89.3,32 89.4,31.5 52.1,31.3 			"/>
		</g>
		<g>
			<polygon class="st1" points="107.6,35.5 107.8,35 89.4,34.8 89.3,35.3 			"/>
			<polygon class="st1" points="51.2,35.2 89.3,35.3 89.4,34.8 51.4,34.7 			"/>
		</g>
		<polygon class="st1" points="113.1,28.6 113.3,28.1 90.1,28 90,28.5 		"/>
		<polygon class="st1" points="115.5,25.3 115.7,24.8 90.8,24.6 90.7,25.1 		"/>
		<polygon class="st1" points="110.4,21.9 110.6,21.4 91.5,21.3 91.4,21.8 		"/>
		<polygon class="st1" points="111.8,18.5 112,18 92.2,17.9 92.1,18.4 		"/>
		<polygon class="st1" points="113.8,14.6 92.9,14.5 92.8,15 113.6,15.1 		"/>
	</g>
	<g>
		<path class="st1" d="M19.8,63.1h1v9.3H20L17.9,66l0.1,2.3v4h-1v-9.3h0.8l2.2,6.3l-0.1-2.7V63.1z"/>
		<path class="st1" d="M22.2,67c0-1,0.2-1.7,0.5-2.1c0.3-0.3,0.7-0.5,1.2-0.5c0.8,0,1.3,0.3,1.5,1c0.1,0.4,0.2,0.9,0.2,1.6v1.5h-2.4
			v1.6c0,0.7,0.1,1.1,0.2,1.3c0.1,0.2,0.3,0.3,0.5,0.3s0.4-0.1,0.5-0.3c0.1-0.2,0.1-0.4,0.1-0.6c0-0.2,0-0.4,0-0.6v-0.6h1.1v0.3
			c0,0.8-0.1,1.4-0.2,1.8c-0.1,0.3-0.3,0.6-0.5,0.7c-0.2,0.1-0.5,0.2-0.9,0.2c-0.4,0-0.6,0-0.9-0.1c-0.2-0.1-0.4-0.2-0.5-0.4
			c-0.1-0.1-0.2-0.4-0.3-0.7c-0.1-0.3-0.1-0.8-0.1-1.6V67z M24.6,66.8c0-0.6,0-0.9-0.1-1c0-0.1-0.1-0.2-0.2-0.3
			c-0.1-0.1-0.2-0.1-0.3-0.1c-0.3,0-0.5,0.1-0.6,0.4c-0.1,0.3-0.1,0.6-0.1,1.1v1h1.3V66.8z"/>
		<path class="st1" d="M29.1,64.5h1l-1.1,7.9h-1.3l-1.1-7.9h1l0.6,4.5l0.2,1.8h0.1l0.2-1.8L29.1,64.5z"/>
		<path class="st1" d="M30.9,67c0-1,0.2-1.7,0.5-2.1c0.3-0.3,0.7-0.5,1.2-0.5c0.8,0,1.3,0.3,1.5,1c0.1,0.4,0.2,0.9,0.2,1.6v1.5H32
			v1.6c0,0.7,0.1,1.1,0.2,1.3c0.1,0.2,0.3,0.3,0.5,0.3c0.2,0,0.4-0.1,0.5-0.3c0.1-0.2,0.1-0.4,0.1-0.6c0-0.2,0-0.4,0-0.6v-0.6h1.1
			v0.3c0,0.8-0.1,1.4-0.2,1.8c-0.1,0.3-0.3,0.6-0.5,0.7c-0.2,0.1-0.5,0.2-0.9,0.2c-0.4,0-0.6,0-0.9-0.1c-0.2-0.1-0.4-0.2-0.5-0.4
			c-0.1-0.1-0.2-0.4-0.3-0.7c-0.1-0.3-0.1-0.8-0.1-1.6V67z M33.3,66.8c0-0.6,0-0.9-0.1-1c0-0.1-0.1-0.2-0.2-0.3
			c-0.1-0.1-0.2-0.1-0.3-0.1c-0.3,0-0.5,0.1-0.6,0.4C32.1,66,32,66.3,32,66.8v1h1.3V66.8z"/>
		<path class="st1" d="M38.2,64.4c0,0,0,0.2,0,0.7l0,0.2c-0.6,0-1.1,0.2-1.4,0.7v6.4h-1.1v-7.9h1.1v0.9c0.1-0.3,0.3-0.6,0.5-0.7
			C37.6,64.5,37.9,64.4,38.2,64.4z"/>
		<path class="st1" d="M45,70.6c0,1.3-0.6,1.9-1.7,1.9c-0.6,0-1-0.2-1.3-0.5c-0.3-0.4-0.4-0.9-0.4-1.8v-0.6h1.1v0.6
			c0,0.9,0.2,1.4,0.6,1.4c0.2,0,0.4-0.1,0.5-0.2c0.1-0.1,0.2-0.4,0.2-0.8c0-0.6-0.3-1.1-0.8-1.6c0,0-0.1-0.1-0.3-0.3
			c-0.1-0.1-0.2-0.2-0.3-0.3c-0.7-0.7-1-1.4-1-2.2c0-0.6,0.1-1.1,0.4-1.4c0.3-0.3,0.7-0.5,1.3-0.5c0.4,0,0.7,0.1,0.9,0.2
			c0.5,0.3,0.7,1.1,0.7,2.2v0.4h-1v-0.5c0-0.5,0-0.8-0.1-1c-0.1-0.2-0.2-0.3-0.5-0.3c-0.2,0-0.4,0.1-0.5,0.2
			c-0.1,0.1-0.2,0.4-0.2,0.7c0,0.5,0.2,1,0.7,1.5l0.6,0.5C44.7,69,45,69.8,45,70.6z"/>
		<path class="st1" d="M46.1,63h1.1v2.3c0.1-0.3,0.2-0.5,0.5-0.7c0.2-0.2,0.5-0.3,0.9-0.3c0.4,0,0.6,0.1,0.9,0.4
			c0.2,0.3,0.3,0.7,0.3,1.3v6.3h-1.1v-6.2c0-0.6-0.2-0.9-0.7-0.9c-0.2,0-0.4,0.1-0.6,0.3c-0.1,0.2-0.2,0.4-0.2,0.7v6.1h-1.1V63z"/>
		<path class="st1" d="M51.1,67c0-1.3,0.3-2.1,0.9-2.4c0.2-0.1,0.5-0.2,0.8-0.2c0.8,0,1.4,0.3,1.6,1c0.1,0.4,0.2,1,0.2,1.6v2.8
			c0,1.1-0.1,1.8-0.4,2.2c-0.3,0.3-0.7,0.5-1.3,0.5c-0.8,0-1.4-0.4-1.6-1.1c-0.1-0.4-0.2-1-0.2-1.7V67z M53.6,66.8
			c0-0.8-0.1-1.2-0.3-1.4c-0.1-0.1-0.2-0.1-0.3-0.1c-0.3,0-0.5,0.1-0.6,0.4c-0.1,0.3-0.1,0.6-0.1,1.1v3.3c0,0.8,0.1,1.2,0.3,1.4
			c0.1,0.1,0.2,0.1,0.3,0.1c0,0,0,0,0,0c0.3,0,0.5-0.1,0.5-0.4c0.1-0.3,0.1-0.6,0.1-1.1V66.8z"/>
		<path class="st1" d="M58.5,64.4c0,0,0,0.2,0,0.7l0,0.2c-0.6,0-1.1,0.2-1.4,0.7v6.4h-1.1v-7.9h1.1v0.9c0.1-0.3,0.3-0.6,0.5-0.7
			C57.9,64.5,58.2,64.4,58.5,64.4z"/>
		<path class="st1" d="M59.7,63.1h1.1v1.4h0.9v0.8h-0.9v5.8c0,0.2,0,0.3,0.1,0.4c0.1,0.1,0.3,0.1,0.7,0.1v0.9h-0.7
			c-0.5,0-0.8-0.1-1-0.3c-0.2-0.2-0.2-0.5-0.2-1v-5.9H59v-0.8h0.7V63.1z"/>
		<path class="st1" d="M62.5,67.7h2.4v0.7h-2.4V67.7z"/>
		<path class="st1" d="M66.3,67.1c0-0.7,0.1-1.2,0.2-1.5c0.1-0.3,0.2-0.6,0.4-0.7c0.3-0.3,0.7-0.5,1.3-0.5c0.6,0,1,0.1,1.2,0.4
			c0.2,0.3,0.4,0.7,0.4,1.2c0,0.2,0,0.5,0,0.8v0.5h-1.1v-0.7c0-0.5,0-0.8-0.1-1c-0.1-0.2-0.3-0.4-0.5-0.4c-0.3,0-0.6,0.2-0.6,0.5
			c-0.1,0.2-0.1,0.5-0.1,0.9v3.4c0,0.5,0,0.9,0.1,1.1c0.1,0.2,0.2,0.3,0.5,0.3c0.2,0,0.4-0.1,0.5-0.2c0.1-0.2,0.2-0.6,0.2-1.2v-0.8
			h1.1v0.5c0,1.1-0.1,1.8-0.4,2.1s-0.7,0.5-1.3,0.5c-0.9,0-1.5-0.5-1.6-1.5c-0.1-0.4-0.1-0.8-0.1-1.3V67.1z"/>
		<path class="st1" d="M71.1,63h1.1v2.3c0.1-0.3,0.2-0.5,0.5-0.7c0.2-0.2,0.5-0.3,0.9-0.3c0.4,0,0.6,0.1,0.9,0.4
			c0.2,0.3,0.3,0.7,0.3,1.3v6.3h-1.1v-6.2c0-0.6-0.2-0.9-0.7-0.9c-0.2,0-0.4,0.1-0.6,0.3c-0.1,0.2-0.2,0.4-0.2,0.7v6.1h-1.1V63z"/>
		<path class="st1" d="M76.2,66.8c0-1,0.1-1.6,0.4-1.9c0.3-0.3,0.7-0.5,1.3-0.5c0.6,0,1,0.1,1.2,0.4c0.2,0.3,0.4,0.7,0.5,1.3
			c0,0.3,0,0.6,0,0.9v5.4h-1.1v-0.7c-0.1,0.2-0.2,0.4-0.4,0.5c-0.2,0.2-0.4,0.2-0.7,0.2c-0.9,0-1.4-0.7-1.4-2.1v-0.8
			c0-0.5,0.1-0.8,0.4-1.2c0.2-0.3,0.9-0.7,2.1-1.1v-0.6c0-0.7,0-1.1-0.1-1.2c-0.1-0.1-0.3-0.2-0.5-0.2c-0.2,0-0.4,0.1-0.5,0.3
			c-0.1,0.2-0.1,0.6-0.1,1.1V67h-1.1V66.8z M78.6,68.1c-0.4,0.2-0.7,0.4-0.9,0.5s-0.3,0.2-0.3,0.4c-0.1,0.1-0.1,0.4-0.1,0.7v0.7
			c0,0.5,0,0.8,0.1,1c0.1,0.2,0.2,0.3,0.4,0.3c0.2,0,0.4-0.1,0.5-0.2c0.1-0.1,0.2-0.2,0.3-0.4V68.1z"/>
		<path class="st1" d="M82.2,65.3c0.1-0.3,0.2-0.5,0.5-0.7c0.2-0.2,0.5-0.3,0.9-0.3c0.4,0,0.6,0.1,0.9,0.4c0.2,0.3,0.3,0.7,0.3,1.3
			v6.3h-1.1v-6.3c0-0.3-0.1-0.5-0.2-0.6c-0.1-0.1-0.3-0.2-0.5-0.2c-0.2,0-0.4,0.1-0.5,0.2c-0.1,0.2-0.2,0.4-0.2,0.7v6.2h-1.1v-7.9
			h1.1V65.3z"/>
		<path class="st1" d="M87.6,64.4c0.5,0,0.8,0.2,1,0.7v-0.6h1.1v7.2c0,0.9-0.4,1.5-1.1,1.8c-0.2,0.1-0.5,0.1-0.9,0.1
			c-0.6,0-1.2-0.2-1.6-0.5l0.4-0.7c0.4,0.3,0.8,0.4,1.2,0.4c0.3,0,0.5-0.1,0.6-0.3c0.1-0.2,0.2-0.4,0.2-0.7V71
			c-0.1,0.2-0.2,0.4-0.4,0.5c-0.2,0.1-0.4,0.1-0.7,0.1c-0.5,0-0.9-0.2-1.1-0.7c-0.2-0.4-0.3-1-0.3-1.8v-2.3
			C86.1,65.2,86.6,64.4,87.6,64.4z M88.6,66.8c0-0.5,0-0.9-0.1-1.1c-0.1-0.2-0.3-0.4-0.5-0.4s-0.4,0.1-0.5,0.2
			c-0.1,0.1-0.2,0.3-0.2,0.5c0,0.2,0,0.5,0,0.8v2.5c0,0.6,0.1,1,0.2,1.2c0.1,0.2,0.3,0.4,0.6,0.4c0.1,0,0.3,0,0.3-0.1
			c0.2-0.2,0.3-0.7,0.3-1.5V66.8z"/>
		<path class="st1" d="M91,67c0-1,0.2-1.7,0.5-2.1c0.3-0.3,0.7-0.5,1.2-0.5c0.8,0,1.3,0.3,1.5,1c0.1,0.4,0.2,0.9,0.2,1.6v1.5h-2.4
			v1.6c0,0.7,0.1,1.1,0.2,1.3c0.1,0.2,0.3,0.3,0.5,0.3c0.2,0,0.4-0.1,0.5-0.3c0.1-0.2,0.1-0.4,0.1-0.6c0-0.2,0-0.4,0-0.6v-0.6h1.1
			v0.3c0,0.8-0.1,1.4-0.2,1.8c-0.1,0.3-0.3,0.6-0.5,0.7c-0.2,0.1-0.5,0.2-0.9,0.2c-0.4,0-0.6,0-0.9-0.1c-0.2-0.1-0.4-0.2-0.5-0.4
			c-0.1-0.1-0.2-0.4-0.3-0.7C91.1,71,91,70.5,91,69.8V67z M93.4,66.8c0-0.6,0-0.9-0.1-1c0-0.1-0.1-0.2-0.2-0.3
			c-0.1-0.1-0.2-0.1-0.3-0.1c-0.3,0-0.5,0.1-0.6,0.4c-0.1,0.3-0.1,0.6-0.1,1.1v1h1.3V66.8z"/>
		<path class="st1" d="M100.7,64.5h1l-1.3,8.1c-0.1,0.4-0.1,0.7-0.2,0.9c-0.1,0.1-0.2,0.2-0.3,0.3c-0.1,0-0.3,0.1-0.5,0.1h-1.1v-0.8
			h0.4c0.4,0,0.6,0,0.6-0.1c0,0,0-0.1,0-0.2c0-0.1,0-0.3,0-0.4L98,64.5h1.1l0.6,4.1l0.2,2.1h0.1l0.2-2.1L100.7,64.5z"/>
		<path class="st1" d="M102.6,67c0-1.3,0.3-2.1,0.9-2.4c0.2-0.1,0.5-0.2,0.8-0.2c0.8,0,1.4,0.3,1.6,1c0.1,0.4,0.2,1,0.2,1.6v2.8
			c0,1.1-0.1,1.8-0.4,2.2c-0.3,0.3-0.7,0.5-1.3,0.5c-0.8,0-1.4-0.4-1.6-1.1c-0.1-0.4-0.2-1-0.2-1.7V67z M105,66.8
			c0-0.8-0.1-1.2-0.3-1.4c-0.1-0.1-0.2-0.1-0.3-0.1c-0.3,0-0.5,0.1-0.6,0.4c-0.1,0.3-0.1,0.6-0.1,1.1v3.3c0,0.8,0.1,1.2,0.3,1.4
			c0.1,0.1,0.2,0.1,0.3,0.1c0,0,0,0,0,0c0.3,0,0.5-0.1,0.5-0.4c0.1-0.3,0.1-0.6,0.1-1.1V66.8z"/>
		<path class="st1" d="M110,64.5h1.1v7.9H110v-0.8c-0.1,0.3-0.2,0.5-0.4,0.7c-0.2,0.2-0.5,0.3-0.8,0.3c-0.3,0-0.6-0.1-0.9-0.4
			c-0.2-0.3-0.4-0.7-0.4-1.3v-6.3h1.1v6.2c0,0.6,0.2,0.9,0.7,0.9c0.3,0,0.4-0.1,0.6-0.3c0.1-0.2,0.2-0.4,0.2-0.7V64.5z"/>
		<path class="st1" d="M115.1,64.4c0,0,0,0.2,0,0.7l0,0.2c-0.6,0-1.1,0.2-1.4,0.7v6.4h-1.1v-7.9h1.1v0.9c0.1-0.3,0.3-0.6,0.5-0.7
			C114.5,64.5,114.7,64.4,115.1,64.4z"/>
		<path class="st1" d="M119.3,70.6c0,1.3-0.6,1.9-1.7,1.9c-0.6,0-1-0.2-1.3-0.5c-0.3-0.4-0.4-0.9-0.4-1.8v-0.6h1.1v0.6
			c0,0.9,0.2,1.4,0.6,1.4c0.2,0,0.4-0.1,0.5-0.2s0.2-0.4,0.2-0.8c0-0.6-0.3-1.1-0.8-1.6c0,0-0.1-0.1-0.3-0.3
			c-0.1-0.1-0.2-0.2-0.3-0.3c-0.7-0.7-1-1.4-1-2.2c0-0.6,0.1-1.1,0.4-1.4c0.3-0.3,0.7-0.5,1.3-0.5c0.4,0,0.7,0.1,0.9,0.2
			c0.5,0.3,0.7,1.1,0.7,2.2v0.4h-1v-0.5c0-0.5,0-0.8-0.1-1c-0.1-0.2-0.2-0.3-0.5-0.3s-0.4,0.1-0.5,0.2c-0.1,0.1-0.2,0.4-0.2,0.7
			c0,0.5,0.2,1,0.7,1.5l0.6,0.5C118.9,69,119.3,69.8,119.3,70.6z"/>
		<path class="st1" d="M120.2,67c0-1,0.2-1.7,0.5-2.1c0.3-0.3,0.7-0.5,1.2-0.5c0.8,0,1.3,0.3,1.5,1c0.1,0.4,0.2,0.9,0.2,1.6v1.5
			h-2.4v1.6c0,0.7,0.1,1.1,0.2,1.3c0.1,0.2,0.3,0.3,0.5,0.3s0.4-0.1,0.5-0.3c0.1-0.2,0.1-0.4,0.1-0.6c0-0.2,0-0.4,0-0.6v-0.6h1.1
			v0.3c0,0.8-0.1,1.4-0.2,1.8c-0.1,0.3-0.3,0.6-0.5,0.7c-0.2,0.1-0.5,0.2-0.9,0.2c-0.4,0-0.6,0-0.9-0.1c-0.2-0.1-0.4-0.2-0.5-0.4
			c-0.1-0.1-0.2-0.4-0.3-0.7c-0.1-0.3-0.1-0.8-0.1-1.6V67z M122.6,66.8c0-0.6,0-0.9-0.1-1c0-0.1-0.1-0.2-0.2-0.3
			c-0.1-0.1-0.2-0.1-0.3-0.1c-0.3,0-0.5,0.1-0.6,0.4c-0.1,0.3-0.1,0.6-0.1,1.1v1h1.3V66.8z"/>
		<path class="st1" d="M125.1,63h1.1v9.4h-1.1V63z"/>
		<path class="st1" d="M128,64.4c0-1,0.4-1.4,1.2-1.4c0.3,0,0.6,0,0.8,0.1v0.8c-0.1,0-0.3,0-0.5,0c-0.2,0-0.3,0-0.4,0.1
			c-0.1,0.1-0.1,0.2-0.1,0.4v0.4h0.9v0.8h-0.9v6.8H128v-6.8h-0.7v-0.8h0.7V64.4z"/>
		<path class="st1" d="M131.1,71.4h0.9v1h-0.9V71.4z"/>
	</g>
</g>
</svg>
